<?xml version="1.0" encoding="UTF-8"?>
<svg xmlns="http://www.w3.org/2000/svg" xmlns:xlink="http://www.w3.org/1999/xlink" width="108px" height="108px" viewBox="0 0 108 108" version="1.1">
<g id="surface1">
<path style=" stroke:none;fill-rule:nonzero;fill:rgb(0.392157%,0%,0.784314%);fill-opacity:1;" d="M 65.242188 9.800781 C 61.480469 3.6875 56.925781 0.632812 51.582031 0.632812 C 46.234375 0.632812 41.679688 3.6875 37.921875 9.800781 C 34.160156 15.914062 32.28125 23.292969 32.28125 31.945312 C 32.28125 37.164062 33.886719 45.882812 37.105469 58.105469 C 40.320312 70.328125 43.539062 81.449219 46.753906 91.476562 C 49.972656 101.5 51.578125 106.375 51.578125 106.101562 C 52.082031 104.589844 52.769531 102.53125 53.644531 99.921875 C 54.523438 97.308594 56.070312 92.402344 58.28125 85.195312 C 60.496094 77.984375 62.4375 71.355469 64.109375 65.316406 C 65.78125 59.273438 67.328125 53.023438 68.746094 46.570312 C 70.167969 40.113281 70.878906 35.238281 70.878906 31.941406 C 70.878906 23.289062 68.996094 15.910156 65.238281 9.796875 Z M 55.714844 38.535156 C 54.542969 40.457031 53.144531 41.417969 51.515625 41.417969 C 49.890625 41.417969 48.488281 40.457031 47.320312 38.535156 C 46.152344 36.613281 45.566406 34.3125 45.566406 31.636719 C 45.566406 28.960938 46.148438 26.691406 47.320312 24.835938 C 48.492188 22.984375 49.890625 22.058594 51.515625 22.058594 C 53.144531 22.058594 54.542969 22.984375 55.714844 24.835938 C 56.886719 26.691406 57.46875 28.957031 57.46875 31.636719 C 57.46875 34.316406 56.886719 36.613281 55.714844 38.535156 Z M 55.714844 38.535156 "/>
</g>
</svg>
